<svg width="512" height="512" xmlns="http://www.w3.org/2000/svg"><g fill="none" fill-rule="evenodd"><path d="M384 320h32v32h-32zm0 32h32v32h-32zm-32-32h32v32h-32zm0 32h32v32h-32zm0 32h32v32h-32zm0 32h32v32h-32zm-32 32h32v32h-32zm-32 32h32v32h-32zm0-288h32v32h-32zm0 32h32v32h-32zm32 32h32v32h-32zm0 32h32v32h-32z" fill="#CE9074"/><path d="M192 480h32v32h-32zm32 0h32v32h-32zm32 0h32v32h-32zM128 224h32v32h-32zm0 32h32v32h-32zm0 160h32v32h-32zm0-32h32v32h-32zm0-32h32v32h-32zm0-32h32v32h-32zm0-32h32v32h-32zm32-96h32v32h-32zm0 32h32v32h-32zm0 32h32v32h-32zm0 160h32v32h-32zm0-32h32v32h-32zm0-96h32v32h-32zm32-96h32v32h-32zm0 32h32v32h-32zm0 32h32v32h-32zm0 160h32v32h-32zm0-32h32v32h-32zm0-32h32v32h-32zm0-32h32v32h-32zm0-32h32v32h-32zm32-96h32v32h-32zm0 32h32v32h-32zm0 32h32v32h-32zm0 160h32v32h-32zm0-32h32v32h-32zm0-32h32v32h-32zm0-32h32v32h-32zm0-32h32v32h-32zm32-96h32v32h-32zm0 32h32v32h-32zm0 32h32v32h-32zm0 160h32v32h-32zm0-32h32v32h-32zm0-96h32v32h-32zm32-32h32v32h-32zm0 160h32v32h-32zm-128 32h32v32h-32zm32 0h32v32h-32zm32 0h32v32h-32zm32 0h32v32h-32zm32 0h32v32h-32zm0-64h32v32h-32zm0-32h32v32h-32zm0-32h32v32h-32zm0-32h32v32h-32zm32 128h32v32h-32zm0-32h32v32h-32zm0-32h32v32h-32zm0-32h32v32h-32zm64-32h32v32h-32z" fill="#E1A17A"/><path d="M96 224h32v32H96zm0 32h32v32H96zm64 224h32v32h-32zm-32-32h32v32h-32zm-32-32h32v32H96zm0-32h32v32H96zm0-32h32v32H96zm0-32h32v32H96zm0-32h32v32H96zm32-96h32v32h-32z" fill="#EBAD8F"/><path d="M256 352h32v32h-32zm0-32h32v32h-32zm-96 32h32v32h-32zm0-32h32v32h-32z" fill="#4D676C"/><path d="M416 128h32v32h-32zm0 32h32v32h-32zm0 64h32v32h-32zm-32 32h32v32h-32zm-32 32h32v32h-32zM64 256h32v32H64zm352-64h32v32h-32zm-32-64h32v32h-32z" fill="#C71D5D"/><path d="M96 160h32v32H96zm0-32h32v32H96zm0 64h32v32H96zm288-32h32v32h-32zm0 32h32v32h-32zm0 32h32v32h-32zm-32-96h32v32h-32zm0 32h32v32h-32zm0 32h32v32h-32zm0 32h32v32h-32zm-224-64h32v32h-32zm0-32h32v32h-32zm32 32h32v32h-32zm0-32h32v32h-32zm32 32h32v32h-32zm0-32h32v32h-32zm32 32h32v32h-32zm0-32h32v32h-32zm32 32h32v32h-32zm0-32h32v32h-32zm32 32h32v32h-32zm0-32h32v32h-32zm32 32h32v32h-32zm0-32h32v32h-32zm0 64h32v32h-32zm0 32h32v32h-32zM64 128h32v32H64zm0 64h32v32H64zm0-32h32v32H64zm0 64h32v32H64zm288 32h32v32h-32z" fill="#ED206D"/><path d="M96 96h32v32H96zm32 0h32v32h-32zm32 0h32v32h-32zm32 0h32v32h-32zm32 0h32v32h-32zm32 0h32v32h-32zm64 0h32v32h-32zm32 0h32v32h-32zm-64 0h32v32h-32z" fill="#F7367F"/><path d="M384 96h32v32h-32z" fill="#EF1769"/><path d="M128 64h32v32h-32zm32 0h32v32h-32zm160 0h32v32h-32zm-32 0h32v32h-32zm-32 0h32v32h-32zm-32 0h32v32h-32zm-32 0h32v32h-32z" fill="#FF5595"/><path d="M160 32h32v32h-32zm32 0h32v32h-32z" fill="#FF8CB7"/><path d="M224 32h32v32h-32z" fill="#FF78AA"/><path fill="#FFAF87" d="M96 224h32v-32h192v64h32v64h32v-32h32v96h-32v64h-32v32h-32v32H160v-32h-32v-32H96z"/><path d="M160 480h32v32h-32zm-32-32h32v32h-32zM96 224h32v224H96zm32-32h32v32h-32z" fill="#FFF" fill-opacity=".25"/><path d="M288 192h32v64h-32zm32 64h32v64h-32zm32 64h64v64h-32v64h-32zm-32 128h32v32h-32zm-32 32h32v32h-32z" fill="#000" fill-opacity=".1"/><path d="M256 320h32v64h-32zm-96 0h32v64h-32z" fill="#000"/><path fill="#FF0087" d="M96 288H64V128h32V96h32V64h32V32h96v32h96v32h64v32h32v128h-32v32h-32v32h-32v-64h-32v-64H128v32H96z"/><path d="M64 256h32v32H64zm288 32h32v32h-32zm32-32h32v32h-32zm32 0h32V128h-64v32h32z" fill="#000" fill-opacity=".15"/><path d="M96 96h288v32H96z" fill="#FFF" fill-opacity=".2"/><path d="M128 64h96.664L224 32h32v32h96v32H128z" fill="#FFF" fill-opacity=".3"/><path d="M160 32h64v32h-64z" fill="#FFF" fill-opacity=".5"/></g></svg>